<?xml version="1.0" standalone="no"?>
<!DOCTYPE svg PUBLIC "-//W3C//DTD SVG 20010904//EN"
 "http://www.w3.org/TR/2001/REC-SVG-20010904/DTD/svg10.dtd">
<svg version="1.0" xmlns="http://www.w3.org/2000/svg"
 width="225.000000pt" height="225.000000pt" viewBox="0 0 225.000000 225.000000"
 preserveAspectRatio="xMidYMid meet">

<g transform="translate(0.000000,225.000000) scale(0.100000,-0.100000)"
fill="#000000" stroke="none">
<path d="M745 1655 l-370 -143 -3 -46 -3 -46 756 0 756 1 -3 46 -3 45 -374
144 c-205 79 -376 144 -380 143 -3 0 -172 -65 -376 -144z m427 -12 c41 -37 10
-103 -48 -103 -34 0 -64 28 -64 60 0 9 7 26 16 38 18 27 69 30 96 5z"/>
<path d="M320 1335 l0 -65 805 0 805 0 0 65 0 65 -805 0 -805 0 0 -65z"/>
<path d="M410 1215 c0 -20 5 -25 25 -25 l25 0 0 -300 0 -300 -25 0 c-20 0 -25
-5 -25 -25 l0 -25 145 0 145 0 0 24 c0 19 -6 25 -27 28 l-28 3 -2 298 -1 297
29 0 c24 0 29 4 29 25 l0 25 -145 0 -145 0 0 -25z"/>
<path d="M790 1215 c0 -20 5 -25 25 -25 l25 0 0 -300 0 -300 -25 0 c-20 0 -25
-5 -25 -25 l0 -25 145 0 145 0 0 25 c0 20 -5 25 -25 25 l-25 0 0 300 0 300 25
0 c20 0 25 5 25 25 l0 25 -145 0 -145 0 0 -25z"/>
<path d="M1172 1218 c2 -17 11 -24 31 -26 l27 -3 0 -300 0 -299 -30 0 c-25 0
-30 -4 -30 -25 l0 -25 145 0 145 0 0 25 c0 20 -5 25 -25 25 l-25 0 0 300 0
300 25 0 c20 0 25 5 25 25 l0 25 -146 0 c-145 0 -145 0 -142 -22z"/>
<path d="M1560 1215 c0 -20 5 -25 25 -25 l25 0 0 -300 0 -300 -25 0 c-20 0
-25 -5 -25 -25 l0 -25 145 0 145 0 0 24 c0 19 -6 25 -26 28 -30 3 -27 -33 -25
361 l1 237 25 0 c20 0 25 5 25 25 l0 25 -145 0 -145 0 0 -25z"/>
<path d="M280 475 l0 -35 845 0 845 0 0 35 0 35 -845 0 -845 0 0 -35z"/>
</g>
</svg>
