<?xml version="1.0" standalone="no"?>
<!DOCTYPE svg PUBLIC "-//W3C//DTD SVG 20010904//EN"
 "http://www.w3.org/TR/2001/REC-SVG-20010904/DTD/svg10.dtd">
<svg version="1.0" xmlns="http://www.w3.org/2000/svg"
 width="224.000000pt" height="225.000000pt" viewBox="0 0 224.000000 225.000000"
 preserveAspectRatio="xMidYMid meet">

<g transform="translate(0.000000,225.000000) scale(0.100000,-0.100000)"
fill="#000000" stroke="none">
<path d="M949 2241 c-155 -29 -332 -98 -450 -176 -94 -63 -250 -219 -312 -312
-86 -129 -155 -306 -178 -456 -19 -119 -6 -353 25 -466 108 -387 414 -693 796
-796 116 -31 312 -43 443 -27 107 14 276 69 377 123 270 146 473 401 556 700
20 75 27 125 31 244 6 168 -3 251 -43 377 -61 194 -143 329 -289 473 -152 150
-315 243 -521 295 -89 23 -356 35 -435 21z m426 -156 c94 -26 263 -111 342
-171 282 -216 422 -544 384 -902 -12 -117 -36 -199 -95 -326 l-36 -80 -33 31
c-71 66 -179 127 -360 199 l-108 44 -57 -47 c-31 -25 -86 -60 -122 -77 -60
-29 -73 -31 -170 -31 -97 0 -110 2 -170 31 -36 17 -91 52 -122 77 l-57 47
-108 -44 c-181 -72 -289 -133 -360 -199 l-33 -31 -34 76 c-130 281 -139 560
-26 831 93 225 301 432 525 523 161 66 209 74 405 70 123 -3 193 -9 235 -21z"/>
<path d="M1033 1845 c-168 -37 -308 -180 -344 -353 -65 -312 198 -696 459
-669 200 21 392 269 409 527 10 152 -33 274 -131 372 -67 67 -136 105 -223
123 -81 17 -90 17 -170 0z"/>
</g>
</svg>
