<?xml version="1.0" standalone="no"?>
<!DOCTYPE svg PUBLIC "-//W3C//DTD SVG 20010904//EN"
 "http://www.w3.org/TR/2001/REC-SVG-20010904/DTD/svg10.dtd">
<svg version="1.0" xmlns="http://www.w3.org/2000/svg"
 width="5000.000000pt" height="5000.000000pt" viewBox="0 0 5000.000000 5000.000000"
 preserveAspectRatio="xMidYMid meet">

<g transform="translate(0.000000,5000.000000) scale(0.100000,-0.100000)"
fill="#000000" stroke="none">
<path d="M11685 40930 c-478 -37 -908 -151 -1321 -350 -382 -184 -689 -398
-988 -690 -580 -566 -947 -1271 -1080 -2073 -42 -251 -2196 -14882 -2211
-15012 -88 -793 89 -1619 496 -2311 535 -912 1438 -1560 2449 -1758 74 -15
626 -101 1225 -191 600 -91 1105 -167 1123 -170 l32 -6 0 850 0 850 -32 6
c-18 3 -478 73 -1021 155 -544 82 -1026 158 -1070 169 -360 86 -690 272 -958
540 -266 267 -443 575 -539 935 -53 200 -64 290 -63 531 l0 220 586 3963 c322
2180 588 3966 590 3968 2 2 777 -113 1722 -256 945 -143 1721 -259 1726 -258
4 2 51 55 105 118 493 580 1158 1030 1885 1274 266 89 520 146 859 193 118 16
760 18 10959 23 l10833 5 -13652 2070 c-7508 1139 -13655 2072 -13659 2075 -7
4 224 1611 258 1797 19 103 67 261 116 383 253 630 818 1102 1477 1235 181 36
366 49 523 36 157 -13 25680 -3881 25814 -3913 453 -106 840 -459 1000 -911
58 -165 75 -271 75 -472 l0 -180 -157 -1054 c-86 -580 -157 -1058 -157 -1062
0 -5 371 -8 837 -7 l837 3 132 895 c73 492 140 951 148 1020 67 541 -12 1105
-226 1610 -405 956 -1271 1653 -2273 1830 -185 33 -25626 3889 -25763 3905
-157 19 -490 26 -637 15z"/>
<path d="M15395 31053 c-895 -77 -1685 -443 -2310 -1068 -613 -613 -993 -1415
-1080 -2280 -14 -146 -15 -858 -12 -7935 3 -7357 4 -7781 20 -7890 98 -642
288 -1138 623 -1632 301 -445 672 -801 1125 -1081 466 -287 966 -458 1541
-524 146 -17 765 -18 12953 -18 10402 0 12823 2 12925 13 368 38 691 115 1004
239 747 295 1381 827 1800 1513 293 478 466 983 538 1570 19 156 19 16205 0
16360 -114 920 -610 1729 -1367 2235 -367 244 -772 401 -1235 478 l-135 22
-13175 1 c-7246 0 -13193 -1 -13215 -3z m26355 -1697 c296 -72 509 -187 705
-381 222 -220 356 -478 410 -789 13 -76 15 -260 15 -1337 l0 -1249 -14620 0
-14620 0 0 893 c0 543 4 937 11 1007 35 386 176 759 401 1060 78 105 258 292
358 373 282 227 641 383 995 431 84 12 2186 14 13185 12 12619 -1 13088 -2
13160 -20z m1130 -13106 c0 -3616 -2 -4071 -16 -4171 -50 -365 -203 -719 -434
-1009 -77 -96 -255 -273 -345 -341 -280 -214 -614 -355 -957 -404 -90 -13
-1726 -15 -12860 -15 -11520 0 -12768 2 -12869 16 -674 94 -1259 526 -1555
1149 -86 181 -134 334 -177 560 l-21 110 -3 4070 c-2 2238 -1 4075 2 4082 3
11 2865 13 14620 13 l14615 0 0 -4060z"/>
<path d="M18045 17190 c-748 -58 -1425 -368 -1945 -890 -457 -459 -753 -1040
-850 -1676 -28 -177 -38 -546 -21 -732 67 -715 379 -1365 898 -1872 151 -149
255 -235 408 -339 381 -261 813 -430 1280 -503 120 -19 182 -22 440 -23 320 0
374 5 625 55 234 47 509 139 694 232 l69 35 126 -57 c248 -113 540 -199 809
-241 173 -26 561 -37 737 -20 610 59 1164 283 1637 663 956 769 1350 2032
1002 3213 -290 982 -1106 1777 -2103 2051 -703 193 -1455 131 -2103 -173 l-98
-46 -90 42 c-292 136 -607 226 -926 265 -154 19 -447 27 -589 16z m3315 -566
c317 -41 642 -151 919 -311 642 -371 1087 -1006 1211 -1729 89 -519 6 -1057
-236 -1531 -344 -674 -995 -1164 -1736 -1308 -327 -63 -675 -62 -998 6 -115
23 -310 80 -310 89 0 4 19 22 43 41 136 109 344 334 479 519 554 762 720 1726
452 2635 -102 347 -305 731 -540 1025 -80 99 -298 325 -378 390 -30 25 -55 48
-56 52 0 8 135 50 251 77 289 69 599 84 899 45z"/>
<path d="M25913 14919 c-146 -19 -301 -76 -410 -150 -196 -134 -330 -363 -378
-643 -21 -127 -22 -369 0 -501 67 -418 325 -712 682 -781 136 -26 408 -16 593
22 81 17 272 77 307 97 l21 12 -43 135 c-24 74 -44 136 -45 137 0 1 -33 -13
-72 -32 -184 -87 -483 -128 -661 -90 -320 67 -527 446 -478 872 24 208 83 350
194 469 52 56 86 82 140 109 107 52 172 65 322 65 163 0 289 -20 432 -69 l112
-38 45 116 c25 64 48 123 51 132 5 13 -11 23 -82 49 -220 80 -520 117 -730 89z"/>
<path d="M35875 14919 c-278 -38 -486 -167 -633 -392 -204 -312 -226 -870 -50
-1221 100 -199 253 -346 435 -421 228 -92 674 -68 990 54 l82 32 -14 40 c-8
22 -28 84 -45 139 l-30 99 -75 -35 c-140 -64 -336 -104 -521 -104 -98 0 -216
28 -288 69 -52 30 -150 123 -187 176 -41 61 -90 167 -116 252 -24 81 -26 103
-27 263 0 148 3 188 22 263 67 267 223 440 444 492 83 19 296 19 418 0 79 -13
237 -60 300 -88 12 -6 26 20 67 124 l51 131 -54 24 c-75 33 -212 71 -324 89
-120 19 -353 27 -445 14z"/>
<path d="M37531 14908 c-5 -13 -190 -471 -411 -1018 -221 -547 -405 -1003
-407 -1012 -5 -17 7 -18 163 -18 l169 0 125 330 124 330 369 -2 369 -3 126
-327 126 -328 172 0 173 0 -253 628 c-139 345 -326 810 -415 1035 l-164 407
-129 0 c-124 0 -129 -1 -137 -22z m263 -761 c64 -186 116 -341 116 -343 0 -2
-113 -4 -251 -4 -197 0 -250 3 -246 13 2 6 60 164 128 350 67 185 126 334 130
330 3 -5 59 -160 123 -346z"/>
<path d="M27330 14913 c-58 -4 -330 -42 -352 -49 -17 -5 -18 -62 -18 -1005 l0
-999 155 0 155 0 0 431 0 431 183 -4 c175 -3 184 -4 238 -31 108 -53 190 -169
254 -360 37 -112 78 -294 91 -404 l7 -63 158 0 159 0 -5 28 c-3 15 -14 83 -26
152 -65 395 -137 592 -269 734 -38 40 -56 66 -48 69 7 2 41 26 75 51 76 58
151 166 178 257 28 94 26 281 -3 363 -43 117 -139 229 -254 294 -154 88 -398
126 -678 105z m348 -293 c144 -24 241 -86 282 -182 19 -44 22 -65 18 -142 -5
-107 -25 -155 -89 -210 -84 -71 -205 -96 -471 -96 l-148 0 0 314 c0 291 1 315
18 319 34 9 329 7 390 -3z"/>
<path d="M30515 14914 c-22 -2 -134 -13 -250 -25 -115 -11 -218 -22 -227 -25
-17 -5 -18 -61 -18 -993 l0 -988 63 -7 c198 -21 406 -36 506 -36 561 0 911
270 1013 781 32 162 31 436 -1 589 -79 371 -298 601 -647 680 -87 20 -342 34
-439 24z m365 -305 c112 -29 177 -64 251 -138 116 -116 167 -259 176 -494 7
-164 -7 -285 -48 -412 -69 -218 -219 -368 -421 -419 -88 -22 -203 -29 -362
-21 l-146 7 0 739 c0 583 3 741 13 744 30 11 271 23 362 18 54 -3 133 -14 175
-24z"/>
<path d="M39130 14913 c-58 -4 -330 -42 -352 -49 -17 -5 -18 -62 -18 -1005 l0
-999 155 0 155 0 0 431 0 431 183 -4 c176 -3 184 -4 239 -31 127 -62 222 -220
289 -480 23 -91 59 -286 59 -323 l0 -24 160 0 160 0 -5 28 c-3 15 -14 83 -26
152 -65 395 -137 592 -269 734 -38 40 -56 66 -48 69 44 17 142 106 181 165 72
106 91 173 91 322 -1 139 -16 200 -75 291 -39 61 -132 148 -201 187 -154 88
-398 126 -678 105z m364 -298 c141 -27 225 -83 266 -177 19 -44 22 -65 18
-142 -5 -104 -25 -154 -83 -204 -85 -75 -156 -92 -417 -99 l-208 -6 0 316 c0
292 1 316 18 320 43 12 335 6 406 -8z"/>
<path d="M40860 14914 c-154 -14 -459 -45 -477 -49 l-23 -5 0 -989 0 -988 63
-7 c213 -21 416 -36 507 -36 503 0 836 213 976 622 50 147 59 218 59 458 0
215 -1 230 -29 335 -49 189 -124 324 -240 432 -112 105 -245 171 -422 208 -77
16 -319 27 -414 19z m368 -305 c204 -52 341 -192 396 -404 44 -169 42 -409 -4
-591 -64 -250 -218 -413 -446 -471 -55 -14 -110 -18 -270 -17 -111 0 -208 4
-218 7 -15 6 -16 68 -16 741 l0 736 23 5 c49 12 268 23 362 18 54 -3 132 -13
173 -24z"/>
<path d="M28560 13880 l0 -1020 605 0 605 0 0 140 0 140 -450 0 -450 0 2 323
3 322 398 3 397 2 0 140 0 140 -397 2 -398 3 0 270 0 270 448 3 447 2 0 140 0
140 -605 0 -605 0 0 -1020z"/>
<path d="M31880 13880 l0 -1020 155 0 155 0 0 1020 0 1020 -155 0 -155 0 0
-1020z"/>
<path d="M32360 14760 l0 -140 355 0 355 0 0 -880 0 -880 155 0 155 0 2 878 3
877 353 3 352 2 0 140 0 140 -865 0 -865 0 0 -140z"/>
</g>
</svg>
