<?xml version="1.0" standalone="no"?>
<!DOCTYPE svg PUBLIC "-//W3C//DTD SVG 20010904//EN"
 "http://www.w3.org/TR/2001/REC-SVG-20010904/DTD/svg10.dtd">
<svg version="1.0" xmlns="http://www.w3.org/2000/svg"
 width="225.000000pt" height="225.000000pt" viewBox="0 0 225.000000 225.000000"
 preserveAspectRatio="xMidYMid meet">

<g transform="translate(0.000000,225.000000) scale(0.100000,-0.100000)"
fill="#000000" stroke="none">
<path d="M1878 2189 c-31 -12 -92 -98 -638 -904 -216 -319 -394 -582 -396
-584 -2 -2 -111 102 -244 230 -304 296 -299 294 -436 167 -115 -108 -154 -161
-154 -210 0 -36 8 -48 91 -136 188 -200 665 -664 701 -683 46 -24 116 -24 164
-2 41 20 41 21 611 858 705 1038 663 973 663 1023 0 55 -22 78 -167 176 -102
69 -146 84 -195 65z"/>
</g>
</svg>
