<?xml version="1.0" standalone="no"?>
<!DOCTYPE svg PUBLIC "-//W3C//DTD SVG 20010904//EN"
 "http://www.w3.org/TR/2001/REC-SVG-20010904/DTD/svg10.dtd">
<svg version="1.0" xmlns="http://www.w3.org/2000/svg"
 width="225.000000pt" height="225.000000pt" viewBox="0 0 225.000000 225.000000"
 preserveAspectRatio="xMidYMid meet">

<g transform="translate(0.000000,225.000000) scale(0.100000,-0.100000)"
fill="#000000" stroke="none">
<path d="M1024 2005 c-134 -29 -274 -133 -336 -251 -103 -192 -68 -432 86
-589 197 -201 514 -200 713 1 96 98 142 210 143 349 0 142 -46 251 -150 355
-74 74 -147 114 -248 136 -81 17 -128 17 -208 -1z m254 -67 c161 -51 284 -211
299 -388 15 -183 -90 -360 -264 -443 -64 -30 -74 -32 -183 -32 -109 0 -119 2
-183 32 -291 138 -356 506 -128 730 121 120 286 157 459 101z"/>
<path d="M1047 1880 c-289 -73 -383 -426 -170 -635 77 -76 201 -114 310 -95
126 22 224 95 280 208 25 51 28 68 28 157 0 90 -3 106 -29 159 -60 122 -180
203 -313 211 -37 2 -85 0 -106 -5z m113 -135 c0 -17 6 -25 18 -25 30 0 78 -36
92 -69 7 -17 11 -33 9 -35 -2 -3 -20 -7 -41 -11 -31 -6 -37 -4 -42 13 -4 11
-13 23 -21 26 -12 4 -15 -5 -15 -44 0 -48 1 -49 43 -68 61 -28 92 -65 91 -111
-2 -54 -28 -88 -85 -108 -39 -14 -49 -22 -49 -40 0 -16 -6 -23 -20 -23 -15 0
-20 7 -20 25 0 20 -7 26 -38 35 -72 19 -134 120 -82 134 11 3 29 9 40 12 15 4
20 1 20 -14 0 -21 36 -72 51 -72 5 0 9 27 9 60 0 47 -3 60 -15 60 -26 0 -94
39 -105 59 -5 11 -10 38 -10 60 0 51 40 99 90 110 26 5 36 13 38 29 5 33 42
30 42 -3z"/>
<path d="M1078 1625 c-9 -21 -8 -28 7 -45 27 -30 35 -25 35 25 0 52 -22 62
-42 20z"/>
<path d="M1160 1420 c0 -55 11 -63 36 -25 15 23 15 27 0 50 -25 38 -36 30 -36
-25z"/>
<path d="M475 1066 c-128 -45 -380 -164 -377 -178 6 -30 216 -488 223 -488 5
0 43 23 85 50 113 74 108 74 403 -75 160 -82 266 -130 304 -137 109 -23 141
-7 677 351 328 218 370 253 370 307 0 34 -45 81 -84 88 -31 6 -88 -8 -158 -39
-14 -5 -18 -2 -18 14 0 39 -43 71 -95 71 -48 0 -108 -20 -136 -46 -14 -13 -19
-13 -26 -2 -16 27 -58 48 -93 48 -41 0 -104 -28 -217 -98 -96 -58 -93 -62 40
-62 166 -1 237 -46 237 -150 0 -63 -31 -108 -95 -140 -49 -25 -54 -25 -290
-25 l-240 0 -65 32 c-36 18 -85 51 -110 73 l-45 39 78 -24 c121 -39 204 -47
411 -44 169 4 195 6 225 24 46 27 58 47 45 82 -13 39 -58 52 -180 52 -110 1
-222 24 -295 62 -24 12 -97 59 -163 104 -161 110 -197 127 -276 132 -50 3 -81
-2 -135 -21z"/>
</g>
</svg>
